<svg id="Capa_1" enable-background="new 0 0 512 512" height="512" viewBox="0 0 512 512" width="512" xmlns="http://www.w3.org/2000/svg"><g><g id="XMLID_1_"><path d="m448.94 33.28v171.71c0 18.35-14.93 33.27-33.28 33.27h-136.38v103.39c4.53-2.6 9.19-4.21 13.36-5.19 0-.11-.01-.22-.01-.34v-14.34c0-32.93 26.79-59.72 59.72-59.72h14.34c7.64 0 13.85 6.21 13.85 13.85v14.34c0 32.93-26.79 59.73-59.72 59.73-8.5.78-29.85-3.61-41.54 11.09v23.42c11.03 6.02 19.61 16.16 23.44 28.47.93-.07 1.87-.11 2.81-.11 14.17 0 26.98 8.1 33.37 20.23 4.57-1.93 9.49-2.93 14.59-2.93 15.7 0 29.57 9.78 35.1 24.02 22.28.63 40.21 18.95 40.21 41.38v.12c-.03 9-7.46 16.33-16.57 16.33h-60.65c-4.15 0-7.5-3.36-7.5-7.5s3.35-7.5 7.5-7.5h60.65c.83 0 1.56-.64 1.57-1.38 0-14.63-11.85-26.47-26.41-26.47-1.09 0-2.19.07-3.38.22-3.91.5-7.54-2.11-8.3-5.98-2.09-10.57-11.43-18.24-22.22-18.24-5.08 0-9.89 1.66-13.9 4.78-2.03 1.58-4.73 2.01-7.16 1.14-2.42-.88-4.22-2.93-4.77-5.45-2.27-10.3-11.57-17.77-22.12-17.77-2.18 0-4.34.32-6.42.93-2.09.62-4.35.29-6.18-.89-1.84-1.18-3.07-3.09-3.37-5.25-2.35-16.6-16.78-29.12-33.57-29.12s-31.22 12.52-33.57 29.12c-.31 2.16-1.54 4.07-3.37 5.25-1.84 1.18-4.09 1.5-6.18.89-2.09-.62-4.25-.93-6.42-.93-10.56 0-19.86 7.48-22.12 17.77-.55 2.52-2.35 4.57-4.78 5.45-2.42.87-5.12.44-7.15-1.14-4.01-3.12-8.82-4.78-13.9-4.78-10.79 0-20.13 7.67-22.22 18.24-.77 3.87-4.39 6.48-8.31 5.98-1.18-.15-2.29-.22-3.38-.22-14.55 0-26.4 11.84-26.4 26.4 0 .81.73 1.45 1.56 1.45h221.83c4.15 0 7.5 3.36 7.5 7.5s-3.35 7.5-7.5 7.5h-221.83c-9.1 0-16.53-7.33-16.56-16.34 0 0 0-.1 0-.11 0-22.43 17.93-40.75 40.21-41.39 5.53-14.23 19.4-24.01 35.1-24.01 5.09 0 10.02 1 14.59 2.93 6.39-12.13 19.2-20.23 33.36-20.23.94 0 1.88.03 2.82.1 3.83-12.3 12.41-22.45 23.44-28.47v-23.41c-10.22-12.86-26.5-11.11-41.54-11.1-32.93 0-59.73-26.79-59.73-59.72v-14.34c0-7.64 6.22-13.85 13.85-13.85h14.35c32.93 0 59.72 26.79 59.72 59.72v14.34c0 .12-.01.23-.02.34 4.18.98 8.83 2.58 13.37 5.19v-103.39h-136.38c-18.35 0-33.28-14.92-33.28-33.27v-171.71c0-18.35 14.93-33.28 33.28-33.28h33.52c4.14 0 7.5 3.36 7.5 7.5s-3.36 7.5-7.5 7.5h-33.52c-10.08 0-18.28 8.2-18.28 18.28v171.71c0 10.07 8.2 18.27 18.28 18.27h319.32c10.08 0 18.28-8.2 18.28-18.27v-171.71c0-10.08-8.2-18.28-18.28-18.28h-255.81c-4.14 0-7.5-3.36-7.5-7.5s3.36-7.5 7.5-7.5h255.81c18.35 0 33.28 14.93 33.28 33.28zm-83.39 256.97v-13.19h-13.2c-24.66 0-44.72 20.06-44.72 44.72v13.19h13.19c24.66 0 44.73-20.06 44.73-44.72zm-101.27 88.99v-20.56-.01-120.41h-16.56v120.41.01 20.56c2.7-.47 5.47-.72 8.28-.72s5.58.25 8.28.72zm-59.91-44.27v-13.19c0-24.66-20.06-44.72-44.72-44.72h-13.19v13.19c0 24.66 20.06 44.72 44.72 44.72z"/><path d="m396.26 140.03v27.26c0 9.54-7.76 17.3-17.3 17.3h-64.08c-15.61 14.06-36.26 22.63-58.88 22.63s-43.26-8.57-58.88-22.63h-64.08c-9.54 0-17.3-7.76-17.3-17.3v-96.32c0-9.54 7.76-17.3 17.3-17.3h64.08c15.62-14.06 36.26-22.62 58.88-22.62s43.27 8.57 58.88 22.62h64.08c9.54 0 17.3 7.76 17.3 17.3v39.07c0 4.14-3.36 7.5-7.5 7.5-4.15 0-7.5-3.36-7.5-7.5v-39.07c0-1.26-1.03-2.29-2.3-2.29h-50.8c10.03 14.3 15.93 31.7 15.93 50.45 0 18.76-5.9 36.16-15.93 50.46h50.8c1.27 0 2.3-1.03 2.3-2.3v-27.26c0-4.14 3.35-7.5 7.5-7.5 4.14 0 7.5 3.36 7.5 7.5zm-67.17-20.9c0-40.3-32.79-73.09-73.09-73.09s-73.09 32.79-73.09 73.09 32.79 73.09 73.09 73.09 73.09-32.79 73.09-73.09zm-145.25-50.46h-50.8c-1.27 0-2.3 1.03-2.3 2.3v96.32c0 1.27 1.03 2.3 2.3 2.3h50.8c-10.03-14.3-15.93-31.7-15.93-50.46 0-18.75 5.9-36.15 15.93-50.46z"/><path d="m266.71 111.6c12.9 4.57 20.08 16.52 17.86 29.74-1.72 10.22-9.47 20.59-21.57 23.73v5.05c0 4.14-3.36 7.5-7.5 7.5-4.15 0-7.5-3.36-7.5-7.5v-4.34c-6.07-.57-10.92-2.26-17.57-6.61-3.47-2.27-4.44-6.92-2.18-10.39 2.27-3.46 6.92-4.43 10.39-2.17 3.8 2.49 6.21 3.61 9.36 4.09v-30.38c-4.61-2.12-8.07-4.16-10.91-6.39-6.1-4.79-8.89-13.1-7.28-21.68 1.76-9.34 8.27-16.77 16.98-19.4.41-.12.81-.23 1.21-.33v-4.38c0-4.14 3.35-7.5 7.5-7.5 4.14 0 7.5 3.36 7.5 7.5v3.49c8.71 1.23 14.56 5.02 14.93 5.27 3.45 2.28 4.39 6.94 2.1 10.39-2.28 3.44-6.9 4.39-10.35 2.14-.24-.16-2.78-1.71-6.68-2.59v23.42c1.24.46 2.49.91 3.71 1.34zm3.07 27.25c.46-2.75.64-9.27-6.78-12.58v22.68c3.84-2.34 6.14-6.31 6.78-10.1zm-21.78-35.55v-14.39c-1.96 1.67-3.05 4.05-3.45 6.12-.56 3.01.14 5.8 1.8 7.1.51.4 1.06.79 1.65 1.17z"/></g></g></svg>